<?xml version="1.0" encoding="utf-8"?>
<!-- Generator: Adobe Illustrator 15.0.2, SVG Export Plug-In  -->
<!DOCTYPE svg PUBLIC "-//W3C//DTD SVG 1.1//EN" "http://www.w3.org/Graphics/SVG/1.1/DTD/svg11.dtd" [
	<!ENTITY ns_flows "http://ns.adobe.com/Flows/1.0/">
]>
<svg version="1.1"
	 xmlns="http://www.w3.org/2000/svg" xmlns:xlink="http://www.w3.org/1999/xlink" xmlns:a="http://ns.adobe.com/AdobeSVGViewerExtensions/3.0/"
	 x="0px" y="0px" width="97px" height="119px" viewBox="0 0 97 119" overflow="visible" enable-background="new 0 0 97 119"
	 xml:space="preserve">
<defs>
</defs>
<path fill="#0B9DA0" d="M41.54,24.5H30.33c-0.497,0-0.901,0.502-0.901,0.999c0,0.498,0.404,1.001,0.901,1.001h11.21
	c0.497,0,0.899-0.503,0.899-1.001C42.439,25.002,42.037,24.5,41.54,24.5z"/>
<path fill="#0B9DA0" d="M34.013,30.5H30.33c-0.497,0-0.901,0.502-0.901,1c0,0.499,0.404,1,0.901,1h3.684
	c0.497,0,0.899-0.502,0.899-1C34.913,31.002,34.51,30.5,34.013,30.5z"/>
<path fill="#0B9DA0" d="M41.458,30.5h-4.004c-0.276,0-0.5,0.502-0.5,1c0,0.498,0.224,1,0.5,1h4.004c0.275,0,0.499-0.502,0.499-1
	C41.958,31.002,41.734,30.5,41.458,30.5z"/>
<path fill="#0B9DA0" d="M41.54,45.5H22.33c-0.497,0-0.901,0.002-0.901,0.5s0.404,0.5,0.901,0.5h19.21c0.497,0,0.899-0.002,0.899-0.5
	S42.037,45.5,41.54,45.5z"/>
<path fill="#0B9DA0" d="M55.946,45.5H45.38c-0.497,0-0.9,0.002-0.9,0.5s0.403,0.5,0.9,0.5h10.565c0.498,0,0.9-0.002,0.9-0.5
	S56.444,45.5,55.946,45.5z"/>
<path fill="#0B9DA0" d="M55.946,50.5h-3.843c-0.497,0-0.899,0.503-0.899,1c0,0.498,0.402,1,0.899,1h3.843c0.498,0,0.9-0.502,0.9-1
	C56.846,51.003,56.444,50.5,55.946,50.5z"/>
<path fill="#0B9DA0" d="M30.013,50.5H22.33c-0.497,0-0.901,0.503-0.901,1c0,0.498,0.404,1,0.901,1h7.684
	c0.497,0,0.899-0.502,0.899-1C30.913,51.003,30.51,50.5,30.013,50.5z"/>
<path fill="#0B9DA0" d="M48.263,50.5H33.855c-0.497,0-0.9,0.503-0.9,1c0,0.498,0.403,1,0.9,1h14.408c0.497,0,0.899-0.502,0.899-1
	C49.163,51.003,48.76,50.5,48.263,50.5z"/>
<path fill="#0B9DA0" d="M41.54,65.5H22.33c-0.497,0-0.901,0.502-0.901,1c0,0.497,0.404,1,0.901,1h19.21c0.497,0,0.899-0.503,0.899-1
	C42.439,66.002,42.037,65.5,41.54,65.5z"/>
<path fill="#0B9DA0" d="M55.946,65.5H45.38c-0.497,0-0.9,0.502-0.9,1c0,0.497,0.403,1,0.9,1h10.565c0.498,0,0.9-0.503,0.9-1
	C56.846,66.002,56.444,65.5,55.946,65.5z"/>
<path fill="#0B9DA0" d="M55.946,71.5h-3.843c-0.497,0-0.899,0.003-0.899,0.5s0.402,0.5,0.899,0.5h3.843c0.498,0,0.9-0.003,0.9-0.5
	S56.444,71.5,55.946,71.5z"/>
<path fill="#0B9DA0" d="M30.013,71.5H22.33c-0.497,0-0.901,0.003-0.901,0.5s0.404,0.5,0.901,0.5h7.684
	c0.497,0,0.899-0.003,0.899-0.5S30.51,71.5,30.013,71.5z"/>
<path fill="#0B9DA0" d="M48.263,71.5H33.855c-0.497,0-0.9,0.003-0.9,0.5s0.403,0.5,0.9,0.5h14.408c0.497,0,0.899-0.003,0.899-0.5
	S48.76,71.5,48.263,71.5z"/>
<path fill="#0B9DA0" d="M55.89,29.358l-0.544-0.201c0.043-0.396,0.028-0.801-0.046-1.203l0.525-0.242
	c0.328-0.151,0.472-0.541,0.321-0.869l-0.307-0.666c-0.151-0.328-0.541-0.472-0.869-0.321l-0.526,0.243
	c-0.256-0.319-0.555-0.592-0.884-0.817l0.201-0.543c0.125-0.338-0.049-0.716-0.388-0.841l-0.688-0.254
	c-0.329-0.121-0.721,0.06-0.842,0.387l-0.201,0.544c-0.396-0.043-0.801-0.029-1.202,0.045l-0.243-0.525
	c-0.15-0.328-0.541-0.472-0.869-0.321l-0.665,0.307c-0.328,0.151-0.473,0.542-0.321,0.87l0.242,0.525
	c-0.318,0.258-0.592,0.556-0.817,0.885l-0.543-0.2c-0.327-0.122-0.721,0.058-0.842,0.387l-0.254,0.688
	c-0.061,0.165-0.054,0.343,0.02,0.501c0.074,0.159,0.204,0.28,0.368,0.34l0.544,0.201c-0.043,0.396-0.029,0.801,0.046,1.203
	l-0.525,0.242c-0.329,0.151-0.473,0.541-0.321,0.869l0.307,0.667c0.151,0.328,0.541,0.471,0.869,0.32l0.525-0.242
	c0.257,0.318,0.556,0.592,0.885,0.816l-0.2,0.544c-0.062,0.164-0.055,0.342,0.019,0.5c0.073,0.159,0.204,0.28,0.368,0.341
	l0.688,0.254c0.163,0.061,0.341,0.054,0.5-0.02c0.159-0.073,0.28-0.204,0.341-0.368l0.2-0.544c0.397,0.043,0.802,0.029,1.203-0.046
	l0.242,0.525c0.151,0.328,0.541,0.472,0.869,0.321l0.666-0.307c0.328-0.151,0.472-0.541,0.32-0.869l-0.242-0.525
	c0.318-0.257,0.592-0.555,0.817-0.885l0.544,0.201c0.164,0.061,0.342,0.054,0.501-0.02c0.158-0.073,0.279-0.204,0.34-0.368
	l0.254-0.688C56.403,29.861,56.229,29.484,55.89,29.358z M52.288,31.069c-0.344,0.159-0.708,0.238-1.083,0.238
	c-1.009,0-1.932-0.592-2.354-1.507c-0.598-1.297-0.028-2.839,1.269-3.436c0.343-0.158,0.708-0.238,1.083-0.238
	c1.008,0,1.932,0.591,2.354,1.506C54.154,28.93,53.584,30.472,52.288,31.069z"/>
<path fill="#0B9DA0" d="M73.78,22.554h-8.528c-1.851,0-3.357,1.506-3.357,3.357v8.527c0,1.852,1.506,3.358,3.357,3.358h8.528
	c1.852,0,3.358-1.506,3.358-3.358v-8.527C77.138,24.06,75.632,22.554,73.78,22.554z M75.539,34.439c0,0.97-0.789,1.759-1.759,1.759
	h-8.528c-0.969,0-1.758-0.789-1.758-1.759v-8.528c0-0.97,0.789-1.759,1.758-1.759h8.528c0.97,0,1.759,0.789,1.759,1.759V34.439z"/>
<path fill="#0B9DA0" d="M74.346,27.051c-0.312-0.312-0.818-0.312-1.13,0l-4.552,4.552L66.67,29.61c-0.312-0.312-0.818-0.312-1.13,0
	c-0.312,0.312-0.312,0.818,0,1.131l2.558,2.558c0.156,0.156,0.361,0.234,0.565,0.234c0.205,0,0.409-0.078,0.565-0.234l5.117-5.117
	C74.658,27.87,74.658,27.364,74.346,27.051z"/>
<path fill="#0B9DA0" d="M73.78,40.461h-8.528c-1.851,0-3.357,1.507-3.357,3.358v8.528c0,1.851,1.506,3.357,3.357,3.357h8.528
	c1.852,0,3.358-1.507,3.358-3.357v-8.528C77.138,41.968,75.632,40.461,73.78,40.461z M75.539,52.348
	c0,0.969-0.789,1.758-1.759,1.758h-8.528c-0.969,0-1.758-0.789-1.758-1.758v-8.528c0-0.97,0.789-1.759,1.758-1.759h8.528
	c0.97,0,1.759,0.789,1.759,1.759V52.348z"/>
<path fill="#0B9DA0" d="M73.78,58.369h-8.528c-1.851,0-3.357,1.507-3.357,3.358v8.527c0,1.852,1.506,3.358,3.357,3.358h8.528
	c1.852,0,3.358-1.507,3.358-3.358v-8.527C77.138,59.876,75.632,58.369,73.78,58.369z M75.539,70.255c0,0.97-0.789,1.759-1.759,1.759
	h-8.528c-0.969,0-1.758-0.789-1.758-1.759v-8.527c0-0.97,0.789-1.759,1.758-1.759h8.528c0.97,0,1.759,0.789,1.759,1.759V70.255z"/>
<path fill="#0B9DA0" d="M74.346,62.867c-0.312-0.312-0.818-0.312-1.13,0l-4.552,4.552l-1.993-1.993c-0.312-0.312-0.818-0.312-1.13,0
	s-0.312,0.818,0,1.131l2.558,2.559c0.156,0.156,0.361,0.234,0.565,0.234c0.205,0,0.409-0.078,0.565-0.234l5.117-5.117
	C74.658,63.686,74.658,63.18,74.346,62.867z"/>
<path fill="#0B9DA0" d="M72.641,50.076l-1.994-1.993l1.994-1.993c0.312-0.312,0.312-0.819,0-1.13c-0.312-0.312-0.818-0.312-1.131,0
	l-1.994,1.993l-1.993-1.993c-0.312-0.312-0.818-0.312-1.131,0c-0.312,0.312-0.312,0.818,0,1.13l1.994,1.993l-1.994,1.993
	c-0.312,0.312-0.312,0.818,0,1.131c0.156,0.156,0.361,0.234,0.565,0.234c0.205,0,0.409-0.078,0.565-0.234l1.993-1.993l1.994,1.993
	c0.156,0.156,0.36,0.234,0.565,0.234c0.204,0,0.409-0.078,0.564-0.234C72.953,50.895,72.953,50.388,72.641,50.076z"/>
<path fill="#0B9DA0" d="M21.084,35.5l0.049-0.777c0.073-1.253-0.319-2.439-1.4-3.716c-1.179-1.4-2.111-2.645-2.111-4.314
	c0-1.867,1.276-3.631,4.102-3.631c1.302,0,2.677,0.382,3.512,0.973l-0.589,1.542c-0.614-0.467-1.597-0.764-2.481-0.764
	c-1.547,0.024-2.332,0.858-2.332,2.111c0,1.105,0.613,2.062,1.719,3.364c1.228,1.474,1.67,3.111,1.522,4.412L23.025,35.5H21.084z
	 M22.116,40.159c-0.909,0-1.474-0.663-1.474-1.522c0-0.908,0.564-1.547,1.449-1.547c0.835,0,1.448,0.639,1.448,1.547
	C23.54,39.497,22.951,40.159,22.116,40.159z"/>
<path fill="#B3DEDF" d="M86,97H11C4.935,97,0,92.065,0,86V11C0,4.935,4.935,0,11,0h75c6.065,0,11,4.935,11,11v75
	C97,92.065,92.065,97,86,97z M11,2c-4.962,0-9,4.038-9,9v75c0,4.963,4.038,9,9,9h75c4.962,0,9-4.037,9-9V11c0-4.962-4.038-9-9-9H11z
	"/>
<rect x="47.5" y="96.5" fill="#B3DEDF" width="2" height="22"/>
</svg>
