<?xml version="1.0" encoding="utf-8"?>
<!-- Generator: Adobe Illustrator 15.0.2, SVG Export Plug-In  -->
<!DOCTYPE svg PUBLIC "-//W3C//DTD SVG 1.1//EN" "http://www.w3.org/Graphics/SVG/1.1/DTD/svg11.dtd" [
	<!ENTITY ns_flows "http://ns.adobe.com/Flows/1.0/">
]>
<svg version="1.1"
	 xmlns="http://www.w3.org/2000/svg" xmlns:xlink="http://www.w3.org/1999/xlink" xmlns:a="http://ns.adobe.com/AdobeSVGViewerExtensions/3.0/"
	 x="0px" y="0px" width="97px" height="119px" viewBox="0 0.054 97 119" overflow="visible" enable-background="new 0 0.054 97 119"
	 xml:space="preserve">
<defs>
</defs>
<path fill="#DC0043" d="M71.906,26.808c-0.081-0.05-0.166-0.082-0.25-0.12c-0.682-0.448-1.446-0.777-2.223-0.969l-1.552,1.561
	l-1.503-1.578c-0.006,0.001-0.011,0.001-0.017,0.003c-0.745,0.178-1.477,0.487-2.138,0.904c-0.166,0.05-0.33,0.115-0.486,0.204
	c-0.963,0.541-1.881,0.647-2.885,0.334c-3.323-1.036-6.419-6.108-7.331-7.973c-0.243-0.501-0.64-0.87-1.103-1.1l-0.662-0.221
	c-0.481-0.083-0.991-0.027-1.465,0.204c-1.202,0.583-1.701,2.029-1.118,3.229c0.142,0.292,0.669,1.343,1.524,2.683l0.57,0.862
	c1.783,2.596,4.598,5.822,8.129,6.927c0.701,0.219,1.102,0.341,2.102,0.378v12.736c0,0.657-0.031,1.27,0.197,1.833
	c-0.016,0.121-0.197,0.24-0.197,0.364v23.144c0,1.578,1.423,2.856,3,2.856c1.579-0.001,3-1.278,3-2.856V50.35
	c0,0.006,0.023,0.013,0.137,0.013c0.023,0-0.137-0.002-0.137-0.002v19.851c0,1.577,1.422,2.856,2.999,2.856l0,0
	c1.577,0,3.001-1.277,3.001-2.856V47.507c0,0.144,0.396,0.276,0.586,0.379c0.367,0.2,0.805,0.294,1.194,0.294
	c0.857,0,1.708-0.457,2.146-1.263C84.243,34.387,74.963,28.682,71.906,26.808z M67.896,39.5h-0.028l-1.502-2.01l1.502-9.99h0.028
	l1.502,9.99L67.896,39.5z M74.5,42.342V35.43C75.5,37.176,75.5,39.387,74.5,42.342z"/>
<circle fill="#DC0043" cx="67.882" cy="19.133" r="6.225"/>
<path fill="#DC0043" d="M54.136,47.5H23.633c-1.937,0-3.133-1.422-3.133-3.359V16.183c0-1.937,1.195-3.683,3.133-3.683h30.503
	c1.938,0,3.364,1.746,3.364,3.683v27.958C57.5,46.078,56.072,47.5,54.136,47.5z M55.5,16.671c0-0.647-0.524-1.171-1.171-1.171
	H23.671c-0.646,0-1.171,0.524-1.171,1.171v27.657c0,0.647,0.524,1.171,1.171,1.171h30.658c0.646,0,1.171-0.524,1.171-1.171V16.671z"
	/>
<circle fill="#DC0043" cx="29.293" cy="56.062" r="4.93"/>
<path fill="#DC0043" d="M23.583,72.5c-0.146,0-0.083-2.72,0.917-3.655V72.5h4.76l-1.167-1.824l1.189-8.176h0.023l1.188,8.176
	L29.327,72.5H34.5v-3.646c0,0.934,0.645,1.646,0.499,3.646h3.858c0.443-6-4.406-9.025-6.284-10.178
	c-0.083-0.051-0.169-0.152-0.257-0.189c-0.549-0.367-1.166-0.668-1.793-0.824l-1.229,1.221l-1.189-1.259
	c-0.004,0.001-0.009-0.003-0.013-0.002c-0.641,0.153-1.27,0.427-1.827,0.802c-0.086,0.035-0.173,0.202-0.253,0.252
	c-1.877,1.152-6.728,4.178-6.285,10.178H23.583L23.583,72.5z"/>
<circle fill="#DC0043" cx="48.482" cy="56.062" r="4.93"/>
<path fill="#DC0043" d="M42.771,72.5c-0.147,0-0.271-2.72,0.729-3.655V72.5h4.948l-1.167-1.824L48.47,62.5h0.023l1.189,8.176
	L48.515,72.5H53.5v-3.646c1,0.934,0.834,1.646,0.688,3.646h3.857c0.443-6-4.406-9.025-6.283-10.178
	c-0.083-0.051-0.172-0.152-0.258-0.189c-0.547-0.367-1.164-0.668-1.793-0.824l-1.229,1.221l-1.189-1.259
	c-0.005,0.001-0.009-0.003-0.012-0.002c-0.643,0.153-1.271,0.427-1.83,0.802c-0.085,0.035-0.171,0.202-0.253,0.252
	C43.32,63.474,38.471,66.5,38.914,72.5H42.771L42.771,72.5z"/>
<rect x="17.5" y="73.5" fill="#DC0043" width="57" height="7"/>
<path fill="#DC0043" d="M47.345,31.317l-0.982-0.362c0.077-0.716,0.051-1.446-0.084-2.172l0.949-0.437
	c0.592-0.272,0.851-0.976,0.578-1.568l-0.553-1.201c-0.272-0.593-0.976-0.853-1.568-0.58l-0.949,0.438
	c-0.463-0.575-1.002-1.069-1.596-1.475l0.363-0.981c0.225-0.611-0.089-1.293-0.7-1.519l-1.241-0.458
	c-0.593-0.219-1.3,0.107-1.519,0.699l-0.362,0.982c-0.716-0.077-1.446-0.052-2.171,0.082l-0.438-0.948
	c-0.272-0.592-0.977-0.852-1.569-0.58l-1.202,0.553c-0.592,0.273-0.852,0.977-0.579,1.569l0.437,0.948
	c-0.574,0.465-1.068,1.003-1.475,1.596l-0.979-0.361c-0.591-0.22-1.301,0.105-1.52,0.699l-0.458,1.242
	c-0.109,0.296-0.097,0.618,0.035,0.904c0.133,0.287,0.369,0.505,0.664,0.613l0.982,0.363c-0.078,0.715-0.052,1.446,0.083,2.171
	l-0.949,0.437c-0.593,0.273-0.852,0.977-0.579,1.568l0.554,1.204c0.273,0.591,0.976,0.851,1.568,0.578l0.949-0.437
	c0.464,0.574,1.002,1.068,1.597,1.474l-0.362,0.981c-0.11,0.296-0.098,0.617,0.034,0.904c0.132,0.287,0.368,0.506,0.665,0.615
	l1.241,0.458c0.296,0.109,0.617,0.097,0.903-0.035c0.288-0.132,0.505-0.369,0.615-0.664l0.362-0.981
	c0.717,0.078,1.447,0.052,2.172-0.083l0.437,0.949c0.272,0.592,0.976,0.851,1.568,0.579l1.203-0.554
	c0.592-0.272,0.852-0.977,0.578-1.568l-0.438-0.949c0.574-0.464,1.068-1.001,1.475-1.596l0.982,0.363
	c0.296,0.11,0.617,0.097,0.904-0.036c0.286-0.132,0.505-0.368,0.613-0.664l0.459-1.242C48.269,32.224,47.956,31.543,47.345,31.317z
	 M40.841,34.405c-0.619,0.286-1.276,0.429-1.954,0.429c-1.82,0-3.487-1.067-4.249-2.72c-1.078-2.342-0.05-5.124,2.291-6.203
	c0.619-0.285,1.277-0.429,1.954-0.429c1.819,0,3.488,1.067,4.25,2.718C44.209,30.544,43.183,33.326,40.841,34.405z"/>
<path fill="#DDADBC" d="M86,97H11C4.935,97,0,92.065,0,86V11C0,4.935,4.935,0,11,0h75c6.065,0,11,4.935,11,11v75
	C97,92.065,92.065,97,86,97z M11,2c-4.962,0-9,4.038-9,9v75c0,4.963,4.038,9,9,9h75c4.962,0,9-4.037,9-9V11c0-4.962-4.038-9-9-9H11z
	"/>
<rect x="46.353" y="96.5" fill="#DDADBC" width="2" height="22"/>
</svg>
