<?xml version="1.0" encoding="utf-8"?>
<!-- Generator: Adobe Illustrator 15.0.2, SVG Export Plug-In  -->
<!DOCTYPE svg PUBLIC "-//W3C//DTD SVG 1.1//EN" "http://www.w3.org/Graphics/SVG/1.1/DTD/svg11.dtd" [
	<!ENTITY ns_flows "http://ns.adobe.com/Flows/1.0/">
]>
<svg version="1.1"
	 xmlns="http://www.w3.org/2000/svg" xmlns:xlink="http://www.w3.org/1999/xlink" xmlns:a="http://ns.adobe.com/AdobeSVGViewerExtensions/3.0/"
	 x="0px" y="0px" width="97px" height="119px" viewBox="0 -0.224 97 119"
	 overflow="visible" enable-background="new 0 -0.224 97 119" xml:space="preserve">
<defs>
</defs>
<path fill="#FBB03B" d="M48.88,51.438c2.776,0,5.028-2.252,5.028-5.028c0-2.777-2.252-5.028-5.028-5.028
	c-2.777,0-5.029,2.251-5.029,5.028C43.851,49.186,46.103,51.438,48.88,51.438z"/>
<path fill="#FBB03B" d="M58.602,66.854c0.342-2.75,0.785-11.969-6.686-14.443c-0.148-0.05-1.328-0.531-1.783-0.642l-1.239,1.248
	l-1.228-1.288c-0.006,0.001-0.01-0.006-0.013-0.005c-0.468,0.112-1.64,0.644-1.776,0.69c-7.511,2.626-7.041,11.689-6.688,14.439
	H34.75v2.75h1.833v16.5h2.75v-16.5h3.231c-0.239,0.917-0.355,1.109-0.299,1.619l1.486,12.432c0.133,1.195,1.146,2.131,2.324,2.131
	c0.084,0,0.172,0.02,0.258,0.011c1.283-0.145,2.211-1.288,2.067-2.571l-1.292-10.576l1.777-0.723l1.719,0.718l-1.283,10.603
	c-0.141,1.285,0.789,2.44,2.072,2.579c0.086,0.011,0.171,0.016,0.255,0.016c1.18,0,2.193-0.888,2.325-2.084l1.474-12.538
	c0.056-0.507-0.059-0.698-0.297-1.615h3.432v16.5h2.75v-16.5h1.834v-2.75H58.602z M43.917,66.854h-0.782
	c-0.126-0.916-1.052-4.891,0.782-7.756V66.854z M48.897,63.188h-0.021l-1.22-1.819l1.22-8.265h0.021l1.207,8.265L48.897,63.188z
	 M54.659,66.854H54v-7.781C54.917,61.949,54.784,65.938,54.659,66.854z"/>
<circle fill="#FBB03B" cx="25.688" cy="49.001" r="4.817"/>
<path fill="#FBB03B" d="M36.773,62.232c-5.74,0.425-6.488-1.582-7.887-5.33c-0.489-1.371-1.844-2.298-3.137-2.617
	c0,0-0.507-0.28-1.044-0.27c-0.52,0.012-1.096,0.005-1.096,0.005h-0.015c-1.62,0.917-3.346,1.841-3.35,3.822l-0.011,10.695
	c-0.003,2.31,1.577,3.572,3.704,3.575c0.031,0,2.971,0.014,2.971,0.014s3.154-0.094,2.866,3.28
	c-0.206,2.416-0.522,5.118-0.775,8.013c-0.11,1.286,0.84,2.424,2.129,2.535c0.068,0.007,0.136,0.01,0.206,0.01
	c1.197,0,2.22-0.916,2.327-2.134c1.104-12.644,0.61-13.416,0.271-14.213c-0.369-0.694-1.096-1.655-4.859-1.918l0.006-3.12
	c1.305,1,3.06,1.472,5.73,1.472c0.685,0,1.428-0.03,2.24-0.089c1.027-0.076,1.801-0.975,1.726-2.004
	C38.699,62.928,37.803,62.158,36.773,62.232z"/>
<path fill="#FBB03B" d="M27.117,73.271c-0.388,0-1.285,0-3.191,0c-4.935,0-4.759-4.639-4.759-4.639v-9.395
	c0-0.993-0.839-1.799-1.833-1.799c-0.995,0-1.834,0.806-1.834,1.799v15.657c0,0.586,0.917,1.102,0.917,1.432v9.777h2.75v-9.166
	h6.416v9.166h1.834v-9.438c0.916-0.14,1.505-0.789,1.505-1.683C28.922,73.986,28.113,73.271,27.117,73.271z"/>
<circle fill="#FBB03B" cx="72.096" cy="49.001" r="4.817"/>
<path fill="#FBB03B" d="M68.006,75.415c-0.288-3.374,2.866-3.272,2.866-3.272s2.94,0.004,2.971,0.004
	c2.125-0.004,3.706-1.235,3.704-3.545l-0.011-10.759c-0.004-1.981-1.729-2.905-3.352-3.822H74.17c0,0-0.574,0.007-1.094-0.005
	c-0.539-0.011-1.045,0.205-1.045,0.205c-1.291,0.32-2.646,1.278-3.136,2.649c-1.397,3.748-2.146,5.771-7.888,5.346
	c-1.029-0.074-1.927,0.704-2.002,1.735c-0.075,1.028,0.696,1.932,1.726,2.008c0.813,0.059,1.556,0.092,2.24,0.092
	c2.671,0,4.426-0.472,5.73-1.471l0.004,3.119c-3.762,0.264-4.488,1.225-4.857,1.919c-0.34,0.796-0.834,1.57,0.271,14.213
	c0.107,1.219,1.128,2.135,2.327,2.135c0.068,0,0.137-0.003,0.206-0.009c1.289-0.112,2.24-1.247,2.129-2.533
	C68.529,80.529,68.212,77.831,68.006,75.415z"/>
<path fill="#FBB03B" d="M79.667,57.439c-0.996,0-1.834,0.805-1.834,1.798v9.395c0,0,0.958,4.639-3.976,4.639
	c-1.909,0-2.806,0-3.192,0c-0.996,0-1.736,0.716-1.736,1.713c0,0.894,0.654,1.542,1.571,1.682v9.438h1.833v-9.166h6.417v9.166h2.75
	v-9.777c0-0.329,0-0.846,0-1.432V59.237C81.5,58.244,80.66,57.439,79.667,57.439z"/>
<path fill="#FBB03B" d="M54.82,19.543l-0.364-0.134c0.029-0.264,0.021-0.533-0.03-0.801l0.351-0.161
	c0.218-0.1,0.313-0.36,0.214-0.579l-0.205-0.444c-0.1-0.218-0.361-0.314-0.579-0.213l-0.351,0.162
	c-0.171-0.213-0.368-0.395-0.588-0.545l0.133-0.362c0.083-0.226-0.03-0.477-0.258-0.561l-0.459-0.169
	c-0.218-0.08-0.479,0.04-0.56,0.258l-0.133,0.362c-0.264-0.028-0.533-0.019-0.801,0.03l-0.162-0.35
	c-0.1-0.218-0.36-0.314-0.579-0.214l-0.443,0.205c-0.219,0.1-0.316,0.36-0.214,0.578l0.161,0.351
	c-0.212,0.171-0.395,0.37-0.544,0.589l-0.361-0.134c-0.22-0.081-0.48,0.04-0.561,0.258l-0.171,0.458
	c-0.04,0.11-0.035,0.229,0.015,0.334c0.048,0.105,0.136,0.187,0.245,0.226l0.361,0.134c-0.029,0.264-0.021,0.533,0.029,0.801
	l-0.349,0.161c-0.219,0.1-0.313,0.36-0.214,0.579l0.205,0.444c0.101,0.218,0.359,0.314,0.579,0.213l0.349-0.161
	c0.172,0.211,0.37,0.395,0.59,0.544l-0.134,0.362c-0.04,0.11-0.036,0.228,0.013,0.333c0.048,0.106,0.136,0.187,0.244,0.228
	l0.459,0.169c0.11,0.04,0.229,0.035,0.333-0.014c0.106-0.048,0.188-0.136,0.228-0.245l0.133-0.362
	c0.266,0.029,0.534,0.019,0.802-0.03l0.162,0.35c0.1,0.219,0.36,0.314,0.579,0.213l0.442-0.204c0.22-0.101,0.315-0.36,0.214-0.579
	l-0.16-0.351c0.21-0.171,0.393-0.369,0.543-0.588l0.362,0.134c0.109,0.04,0.228,0.035,0.334-0.014
	c0.106-0.048,0.186-0.135,0.227-0.245l0.17-0.458C55.159,19.877,55.045,19.626,54.82,19.543z M52.419,20.683
	c-0.229,0.105-0.472,0.159-0.722,0.159c-0.671,0-1.285-0.395-1.567-1.004c-0.397-0.864-0.018-1.891,0.846-2.289
	c0.229-0.105,0.472-0.159,0.72-0.159c0.672,0,1.287,0.394,1.568,1.003C53.662,19.258,53.282,20.285,52.419,20.683z M35.465,27.363
	c-0.426,0-0.77,0.344-0.77,0.769s0.344,0.769,0.77,0.769h0.063c0.425,0,0.769-0.344,0.769-0.769s-0.344-0.769-0.769-0.769H35.465z
	 M38.136,27.363c-0.425,0-0.769,0.344-0.769,0.769s0.344,0.769,0.769,0.769h0.065c0.424,0,0.768-0.344,0.768-0.769
	s-0.344-0.769-0.768-0.769H38.136z M60.723,15.08v8.656c0,2.049-1.644,3.712-3.692,3.712h-9.975c-0.194,0-0.354-0.001-0.488-0.004
	c-0.142-0.003-0.3-0.004-0.36,0.002c-0.064,0.043-0.225,0.188-0.377,0.328c-0.06,0.055-0.127,0.117-0.2,0.184l-2.822,2.572
	c-0.225,0.206-0.558,0.259-0.837,0.136c-0.277-0.123-0.475-0.399-0.475-0.704v-8.153H33.44c-1.2,0-2.198,0.984-2.198,2.186v8.656
	c0,1.202,0.998,2.146,2.198,2.146h11.141c0.191,0,0.371,0.088,0.513,0.217l2.299,2.12v-7.309c0-0.425,0.344-0.77,0.77-0.77
	c0.424,0,0.77,0.345,0.77,0.77v9.052c0,0.305-0.176,0.576-0.453,0.7c-0.102,0.043-0.2,0.061-0.306,0.061
	c-0.188,0-0.375-0.078-0.519-0.209l-3.371-3.094H33.44c-2.049,0-3.734-1.634-3.734-3.684v-8.656c0-2.05,1.686-3.724,3.734-3.724
	h8.056v-5.19c0-2.049,1.699-3.696,3.749-3.696H57.03C59.079,11.384,60.723,13.03,60.723,15.08z M59.185,15.08
	c0-1.202-0.954-2.158-2.154-2.158H45.245c-1.201,0-2.21,0.956-2.21,2.158v5.967v7.172l1.546-1.397
	c0.071-0.065,0.152-0.125,0.211-0.179c0.706-0.65,0.886-0.754,1.808-0.735c0.125,0.002,0.273,0.003,0.456,0.003h9.975
	c1.2,0,2.154-0.973,2.154-2.174V15.08L59.185,15.08z"/>
<path fill="#FBC97A" d="M86,97H11C4.935,97,0,92.065,0,86V11C0,4.935,4.935,0,11,0h75c6.065,0,11,4.935,11,11v75
	C97,92.065,92.065,97,86,97z M11,2c-4.962,0-9,4.038-9,9v75c0,4.963,4.038,9,9,9h75c4.962,0,9-4.037,9-9V11c0-4.962-4.038-9-9-9H11z
	"/>
<rect x="49.353" y="96.5" fill="#FBC97A" width="2" height="22"/>
</svg>
